<?xml version="1.0" encoding="UTF-8"?>
<svg width="400" height="300" viewBox="0 0 400 300" xmlns="http://www.w3.org/2000/svg">
  <g fill="#FFFFFF" transform="translate(50, 50)">
    <!-- Stylized S with barbell design -->
    <!-- Left weights -->
    <path d="M50,100 C45,85 40,70 35,55 C30,65 25,80 20,100 C15,120 10,140 15,160 C20,180 35,190 50,180 C65,170 75,150 70,130 C65,110 55,105 50,100 Z" />
    <path d="M10,100 C5,85 0,70 -5,55 C-10,65 -15,80 -20,100 C-25,120 -30,140 -25,160 C-20,180 -5,190 10,180 C25,170 35,150 30,130 C25,110 15,105 10,100 Z" />
    
    <!-- Right weights -->
    <path d="M230,100 C235,85 240,70 245,55 C250,65 255,80 260,100 C265,120 270,140 265,160 C260,180 245,190 230,180 C215,170 205,150 210,130 C215,110 225,105 230,100 Z" />
    <path d="M270,100 C275,85 280,70 285,55 C290,65 295,80 300,100 C305,120 310,140 305,160 C300,180 285,190 270,180 C255,170 245,150 250,130 C255,110 265,105 270,100 Z" />
    
    <!-- Barbell bar -->
    <rect x="20" y="95" width="240" height="10" rx="5" ry="5" />
    
    <!-- Stylized S shape -->
    <path d="M140,30 C180,20 200,40 190,70 C180,100 80,110 90,140 C100,170 150,160 170,140" stroke="#FFFFFF" stroke-width="20" fill="none" />
    
    <!-- Small spikes on barbell -->
    <rect x="80" y="90" width="5" height="20" rx="2" ry="2" />
    <rect x="120" y="90" width="5" height="20" rx="2" ry="2" />
    <rect x="160" y="90" width="5" height="20" rx="2" ry="2" />
  </g>
</svg> 